<svg xmlns="http://www.w3.org/2000/svg" xmlns:xlink="http://www.w3.org/1999/xlink"><defs><symbol viewBox="0 0 26 26" id="icon-cross">
  <path d="M21.734 19.64l-2.097 2.094a.983.983 0 0 1-1.395 0L13 16.496l-5.238 5.238a.988.988 0 0 1-1.399 0l-2.097-2.093a.988.988 0 0 1 0-1.399L9.504 13 4.266 7.762a.995.995 0 0 1 0-1.399l2.097-2.097a.988.988 0 0 1 1.399 0L13 9.508l5.242-5.242a.983.983 0 0 1 1.395 0l2.097 2.093a.996.996 0 0 1 .004 1.403L16.496 13l5.238 5.242a.988.988 0 0 1 0 1.399z" />
</symbol><symbol viewBox="0 0 53 32" id="icon-map-low"><path d="M33 6v1-1-1h1v1l1 1V6h-1V5v1-1h1v0l-1-1h1V3s1 0 0 0h1V2h2v1l-1 1 1-1h2l1 1V3h6-1V2h3v1-1l1 1v1h-1v1s0-1 0 0h1l-1 1-1 1v2c1 0 1 0 0 0v1-1l-1-1 1-1V6h-1v1-1 1s-1 0 0 0h-1v1h-1l-1 1h1v0l1 1v2h-1v2h-1v-1l-1 1h1v3h-1v1l-1-1v1l1 1h-1v0h-1v1l1 1-1-1v-1a3 3 0 0 0 0-1h-1a1 1 0 0 1-1-1v1h-1v1l-1 1v-1l-1-1v-1 1-1h-3v-1h-1 1v1h1v1h-1v1h-2v-2h-1v-1 1l1 1v1h1c-1 0 0 0 0 0h1v1h-1v1h-1v3l-1 1v1l-1 1h-2v-2l-1-1 1-1v-1h-1v-1-1h-2a1 1 0 0 0-1 0h-1v-1-2l1-1v-1h4v1h1v-1l1 1h1v-1h-1v-1h-1v0h-1c1 0 0 0 0 0v-1h-1l1 1v1h-1 1v-1h-1a2 2 0 0 1 0-1h-1v1h-1v1h-1v-2h1v-1h1v-1h1v-1 1h1s1 0 0 0v-1h2-1l-1-1 1-1h-1v3h-1v-1h-1V9h1V7h1c-1 0 0 0 0 0h1V6v1h2v1a1 1 0 0 1-1 0h1-1 1V7h1-1l1 1V7h1V6zm-2 8l-1-1h-1v1h2zm2-1h-1v2h1v-1l-1-1h1zm8-3l-1 1 1-1zM30 22v-1 1zm4-9h-1zM14 31v0h-1v-6-1h-1v-1l-1-1v-1h1v-1h-1v-1h-1l-1-1H7v-2l-1-1v1l1 1H6v-2H5v-1-1-1h1v-1H5V9 8H4V7H3L2 8H1L0 9l1-1h1V7H1V6h1V5 4s1 0 0 0l1 1V3h3v1l1 1 1-1-1 1 1-1v1h1-1 2v1H9h2-1 2v1-1h1a17 17 0 0 1-1-1h1v2-1s1 0 0 0h1v1h-1s0 1 0 0h-1l1 1h-1l-1 1v1h1v1h1l1-1h-1V9h1V8s0 1 0 0v1h1v0l1 1v2h-2 1v1h-1 1-1v1h-1v1c-1 0 0 0 0 0h-1v2l-1-1h-1-1v2h1v-1 1h1v2h1v-1h2l1 1 1 1h1v1h2v1h-1v2h-1v2h-1v1h-1v-1 1s1 0 0 0h0v1h-1 1v1h-1 1v1h-1zm-3-18h1v-1h-1zm0-1h-1 1zM8 6h1-1zm0 2h1L8 7v1h1zm2 3zm8-4V6c-1 0 0 0 0 0V4a1 1 0 0 0-1 0l-1-1h1V2h1-1 1V1h1v1c0-1 0-1 0 0l1-1v1-1h1s0-1 0 0h1-1 1v1h-1 2v1h-1 1l-1 1v1l-1 1h1v1c0-1 0 0 0 0l-1-1v1h1a2 2 0 0 1-1 0h-1v1h-1v1c-1 0 0 0 0 0h-1V7zm28 20h-1l-1 1h-1v-2-1h1l1-1h1v-1h1v1h1v-1 1l1 1v1h1v1l-1 1v1h-2v-1h-1v-1zm0 0" /><path d="M18 1v1h-2v1h-1 1-2 1V2 1h1s-1 0 0 0h-1 1-1V0h3v1c0-1 0 0 0 0h1-1zm-4 3v1-1l1 1h-1 1v1-1 1h1v2-1h-1v1h1-1v1-1h-1V7h1V6c0 1 0 0 0 0-1 0 0 0 0 0h-2V5l1-1zm-3 0v1-1 1l-1 1V5H9h1-1V4h1c-1 0-1 0 0 0h1zm36 18l-1-1h1v1h2v1h-2a4 4 0 0 0 0-1c-1 0-1 0 0 0zm-4 0v-1l1-1v2h-1v-1zm-11 3v-1l1-1v2h-1c0 1 0 1 0 0zm0-19h-1V5 4h1V3v2h-1v1h1zm0 0" /><path d="M15 1v1h-1 1V1zm32 12v1l-1 1s-1 0 0 0h-1l1-1h1v-1zM10 3v1H9V3h1zm32 19h-1v-2h-1l1 1h1v1zM25 11v1h-1v-2 1h1zM14 3v1h1-1V3h-1 1zm-3 0V2v1h1V2a9 9 0 0 1 0 1h-1zm15 1V3v1-1h1l-1 1zm26 26v1h-1v1-1c-1 0 0 0 0 0l1-1zM22 8h1l-1 1h-1V8h1zm30 22v-2 1h1v1h-1zM12 4h1-1l1 1h-1V4zm34 7h1v1h-1v-2-1 1l1 1h-1zm-30 1h1-1v-1 1zM41 2h-1V1l1 1V1v1zm4 20h-1v-1h1-1v1h1v-1 1zM34 2V1h1v1h-1zm0 0M13 4c1 0 0 0 0 0v0zm34 8v1s0-1 0 0v-1zm-24-1h1l-1 1v-1zM11 2h1-2 1zm16 1h-1V2l1 1zM13 8c-1 0 0 0 0 0V7v1zm0-7h1v1s-1 0 0 0h-1V1zm34 29h1-1zM13 3c0 1 0 0 0 0zm29 19h1v1h-1v-1zm3-3h-1v-1h1v1zM35 2V1l1 1h-1zM12 18l-1-1h1v1h1-1zM34 1zM14 31l1 1h-1v-1zm31-11zm-32-2h-1zm2-13zm-9 6H5h1zm6-5s0-1 0 0zm26 14zM14 2zm-2 0zm32 15zm0 0" /></symbol><symbol viewBox="0 0 48 50" id="icon-squirrel-low"><path d="M13 49l-1-1H9c1 0 0 0 0 0H7 6l1-1-1-1H5h1l-1-1v-1H4l1-1-3-3v-1H1h1l-1-2h1l-1-1v-1l1-1-2-1 1-1-1-2h1v-2H0h1v-1-1-1-1l1 1v-2-1h1v-1h1l1-2v-1h1v-1h1l1-1v-1l-3-1H4h2v-1l-2-1h2l-1-2h2c-1 0-1 0 0 0h1l2-2V7L8 6h4-1V5h1c1 0 0 0 0 0h2l1-1 2-1 1-1h2l-1-2 4 1 1 1V1l1 1 3 2 2 2 1-1 1 3V7l1 1v5l-1 2v0a152 152 0 0 0 2-3h2v-1l1 3v1l1 1c4 1 6 3 7 6l1 3 1 1-1 1-3 1v1h3l2 2v1c-1 0-1 0 0 0l-1 1h-3-2l-2 1-3 2-2 1-1 1h-1v1h-1-1l-1 2v1l-1 2-1 1h6l1 2-1 1h-1l-1 1c1 0 0 0 0 0l-1 1-5-1h-8-1-1c-1 0 0 0 0 0l-1-1h-1l-1 1zm2-3v0h0v-1 0h-1c0-1 0-1 0 0l-1-1h-1v-1l-3 1 1-1v-1H9l-1-1-2-3-1-5v-3-2H4c0 1 0 0 0 0l-1-1H2l1 1v1H2l1 3H2l1 1-1 1 2 2H3v1h1v1H3h1v1 1l1 1H4h1l2 1v2h1v2l1-1h1v1l1-2v1h3v1h1zm10-4h-1v1c-1 0 0 0 0 0l-1 2v1l1 1h3v-1h-2s-1 0 0 0v-1-1h1v-1h1v-1-1h1v-1-2l1-1-2-5-4-2-3 1h1l1 1h1s0 1 0 0l1 1v2h1v2l1-1v1l-1 1v3 1zm16-14h1l-1-1h3l1-2h-4-1a49 49 0 0 1-3-1l-1-1h-1 1v-1l-1-1h-1l-2 2-1 1h1v-1 1h2v3c-1 0-1 0 0 0h1v1h2l1 1 2-1h1zM9 34l2 6v0l-1-8 2-5c1-2 3-4 6-4l3-1 3 1 2-1h1c1 0 1 0 0 0v-1h1c1 0 1 0 0 0l1-1v-1h1v-1h-2v1h-1c0-1 0 0 0 0l-1 1s0 1 0 0h-1l-1 1-1 1h-6a11 11 0 0 0-8 12zm23-15l1 2h1v-1h2l1-1-2-5h-1l-1 1-1 3v1zm-22-8l1-1h-1l-2 1v1l-1-1v1h0v1h1v0l-1 1h1l1 2h1v-1-1h1l-1-1H9h2v-1h-1-1 1l1-1h-1zm31 12h2l-1-2-2-2-1 1-1 2 2 1h1zm-7 8l2-1 4-1h-1-1a10 10 0 0 1-5 1l1 1zm3-16l-1-2h-1l1 2h1c0 1 0 0 0 0zm-7 32h-1 1l1 1h1l-2-1zm-1 1l2 1-1-1h-1zm16-18l2 1-2-1zm1 2h1v-1h-2v1h1zm0-3h-2l2 1v-1zM34 47v-1h-1-1l2 1zm0 0M6 17v-1 1zm0 0M2 22zm0 0M13 48v1zm0 0M25 42v-1 1zm0 0" /><path d="M36 18v1h-2v-1-1c-1 0 0 0 0 0v-1-1h1l1 3zm0 0M40 22l-1-1 1-1 1 1 1 1h-1-1zm0 0" /></symbol></defs></svg>